<svg width="81" height="26" viewBox="0 0 81 26" fill="none" xmlns="http://www.w3.org/2000/svg">
<path d="M17.7088 7.75006C17.1353 6.02504 15.9883 4.87503 14.2679 4.15627V2H12.8342V4.01252H12.2608C10.6837 4.01252 9.39337 4.58752 8.24641 5.73754L7.67294 6.31254L5.66577 5.59378C5.23566 5.45003 4.80555 5.30628 4.23208 5.30628C3.37186 5.30628 2.51165 5.59378 1.7948 6.16879C0.934586 6.7438 0.504478 7.46255 0.217739 8.18131C-0.068999 9.18757 -0.068999 10.0501 0.217739 11.0563C0.647847 12.0626 1.07795 12.7814 1.7948 13.2126C1.22132 15.3689 1.65143 17.2376 3.22849 18.8189C4.37545 19.9689 5.66577 20.5439 7.24283 20.5439C7.95968 20.5439 8.38978 20.5439 8.81989 20.4002C9.6801 21.5502 10.8271 22.2689 12.2608 22.2689C12.6909 22.2689 13.2643 22.2689 13.6944 22.1252C14.5547 21.8377 15.1281 21.2627 15.7016 20.5439C16.2751 19.6814 16.5618 18.9627 16.5618 18.1002C16.5618 17.5252 16.5618 17.0939 16.4185 16.6626L15.7016 14.3626L16.5618 13.7876C17.7088 12.6376 18.2823 11.0563 18.1389 9.33132H20.0027V7.75006H17.7088ZM3.80197 11.0563C2.94175 10.6251 2.65502 10.0501 2.94175 9.18757C3.22849 8.32506 3.80197 8.03756 4.66218 8.32506L9.25 10.0501C6.95609 11.2001 5.23566 11.4876 3.80197 11.0563ZM12.8342 19.1064C11.974 19.3939 11.4005 19.1064 10.9704 18.2439C10.5403 16.8064 10.8271 15.0814 11.974 12.7814L13.6944 17.2376C13.9812 18.2439 13.6944 18.8189 12.8342 19.1064ZM14.5547 11.4876L13.6944 9.18757V9.04382L13.2643 8.61256H13.121L10.8271 7.75006C11.4005 7.3188 11.974 7.0313 12.6909 7.0313C13.4077 7.0313 14.1245 7.3188 14.698 7.89381C15.2715 8.46881 15.5582 9.04382 15.5582 9.76257C15.2715 10.1938 14.9848 10.9126 14.5547 11.4876Z" fill="#F9F9F9"/>
<path d="M26.7361 8.7C26.7361 8.46 26.7361 8.18667 26.7361 7.88C26.7494 7.56 26.7694 7.25333 26.7961 6.96C26.5827 6.97333 26.3294 6.98667 26.0361 7C25.7561 7 25.5427 7.00667 25.3961 7.02V5.5C26.0227 5.5 26.5427 5.46667 26.9561 5.4C27.3827 5.33333 27.7161 5.25333 27.9561 5.16C28.2094 5.06667 28.3827 4.98 28.4761 4.9H29.5561V10.76C30.0094 10.36 30.4694 10.08 30.9361 9.92C31.4027 9.76 31.8427 9.68 32.2561 9.68C33.0561 9.68 33.7561 9.88667 34.3561 10.3C34.9694 10.7133 35.4427 11.3 35.7761 12.06C36.1227 12.82 36.2961 13.7133 36.2961 14.74C36.2961 15.8067 36.0961 16.7667 35.6961 17.62C35.3094 18.46 34.7561 19.12 34.0361 19.6C33.3161 20.08 32.4494 20.32 31.4361 20.32C31.0761 20.32 30.6161 20.24 30.0561 20.08C29.5094 19.9333 29.0027 19.6133 28.5361 19.12L27.9361 20H26.7361V8.7ZM29.5561 17C29.5561 17.4533 29.6294 17.8133 29.7761 18.08C29.9227 18.3467 30.1094 18.54 30.3361 18.66C30.5627 18.78 30.7894 18.8467 31.0161 18.86C31.6161 18.8733 32.0827 18.7 32.4161 18.34C32.7627 17.98 33.0027 17.5067 33.1361 16.92C33.2827 16.32 33.3561 15.6933 33.3561 15.04C33.3561 14.4267 33.2827 13.8467 33.1361 13.3C32.9894 12.7533 32.7561 12.3133 32.4361 11.98C32.1161 11.6333 31.6961 11.4667 31.1761 11.48C30.8427 11.4933 30.5361 11.58 30.2561 11.74C29.9761 11.8867 29.7427 12.0867 29.5561 12.34V17ZM42.6642 20.06L40.2442 13.12C40.1242 12.7733 40.0309 12.5133 39.9642 12.34C39.9109 12.1667 39.8709 12.02 39.8442 11.9C39.8175 11.78 39.7842 11.64 39.7442 11.48L38.9642 11.52V10H43.7642V11.28C43.3509 11.2933 43.1109 11.4533 43.0442 11.76C42.9775 12.0667 42.9975 12.4267 43.1042 12.84L43.7842 15.28C43.8642 15.5733 43.9375 15.8867 44.0042 16.22C44.0842 16.54 44.1509 16.86 44.2042 17.18C44.2709 16.9 44.3375 16.5933 44.4042 16.26C44.4842 15.9267 44.5975 15.5133 44.7442 15.02L46.2042 10H48.3842L49.9842 15.52C50.0642 15.8 50.1442 16.1067 50.2242 16.44C50.3175 16.76 50.3975 17.0533 50.4642 17.32C50.5175 17.0533 50.5909 16.76 50.6842 16.44C50.7775 16.12 50.8642 15.8333 50.9442 15.58L51.7242 13.04C51.8309 12.68 51.9242 12.3867 52.0042 12.16C52.0842 11.92 52.1842 11.68 52.3042 11.44L51.1642 11.52V10H54.9642V11.28C54.6975 11.28 54.4642 11.3667 54.2642 11.54C54.0642 11.7133 53.8842 11.9267 53.7242 12.18C53.5775 12.42 53.4575 12.66 53.3642 12.9C53.2709 13.1267 53.2042 13.3067 53.1642 13.44L50.8842 20.06H48.7642L47.3842 15.8C47.3442 15.6533 47.2775 15.44 47.1842 15.16C47.1042 14.88 47.0175 14.58 46.9242 14.26C46.8442 13.9267 46.7642 13.62 46.6842 13.34C46.6175 13.7133 46.5175 14.14 46.3842 14.62C46.2509 15.1 46.1242 15.54 46.0042 15.94C45.8842 16.34 45.7975 16.6133 45.7442 16.76L44.6442 20.06H42.6642ZM62.4351 20.32C61.8618 20.32 61.3018 20.2467 60.7551 20.1C60.2085 19.9533 59.7818 19.7667 59.4751 19.54L59.5151 20.14H57.9951L57.9151 16.7H59.2151C59.2551 17.1 59.4151 17.4667 59.6951 17.8C59.9751 18.1333 60.3418 18.4 60.7951 18.6C61.2485 18.7867 61.7551 18.88 62.3151 18.88C62.5418 18.88 62.7551 18.8467 62.9551 18.78C63.1685 18.7133 63.3418 18.6067 63.4751 18.46C63.6218 18.3 63.6951 18.1067 63.6951 17.88C63.6951 17.6267 63.6018 17.42 63.4151 17.26C63.2418 17.1 62.9818 16.9467 62.6351 16.8C62.3018 16.6533 61.8818 16.4867 61.3751 16.3C60.9618 16.14 60.5418 15.9733 60.1151 15.8C59.7018 15.6267 59.3151 15.42 58.9551 15.18C58.6085 14.9267 58.3285 14.62 58.1151 14.26C57.9018 13.8867 57.7951 13.4333 57.7951 12.9C57.7951 12.5133 57.8685 12.1333 58.0151 11.76C58.1618 11.3733 58.3885 11.0267 58.6951 10.72C59.0018 10.4 59.3885 10.1467 59.8551 9.96C60.3351 9.77333 60.9018 9.68 61.5551 9.68C61.9151 9.68 62.3218 9.74 62.7751 9.86C63.2418 9.96667 63.6351 10.1333 63.9551 10.36V9.78H65.4751V13.32H64.1751C64.0951 12.8533 63.9285 12.4533 63.6751 12.12C63.4351 11.7867 63.1218 11.5333 62.7351 11.36C62.3485 11.1733 61.9151 11.08 61.4351 11.08C61.1018 11.08 60.7951 11.16 60.5151 11.32C60.2485 11.48 60.1151 11.7533 60.1151 12.14C60.1151 12.4467 60.2218 12.6933 60.4351 12.88C60.6485 13.0533 60.9418 13.2 61.3151 13.32C61.6885 13.44 62.1018 13.58 62.5551 13.74C63.2351 13.9667 63.8351 14.2333 64.3551 14.54C64.8885 14.8467 65.3085 15.22 65.6151 15.66C65.9218 16.0867 66.0751 16.6133 66.0751 17.24C66.0751 17.9333 65.9018 18.5067 65.5551 18.96C65.2085 19.4133 64.7551 19.7533 64.1951 19.98C63.6485 20.2067 63.0618 20.32 62.4351 20.32ZM74.2822 20.32C73.3088 20.32 72.4488 20.1067 71.7022 19.68C70.9555 19.24 70.3755 18.6267 69.9622 17.84C69.5488 17.04 69.3422 16.1 69.3422 15.02C69.3422 14.0867 69.5488 13.2133 69.9622 12.4C70.3755 11.5867 70.9555 10.9333 71.7022 10.44C72.4622 9.93333 73.3422 9.68 74.3422 9.68C74.9022 9.68 75.4488 9.76 75.9822 9.92C76.5155 10.0667 76.9955 10.3267 77.4222 10.7C77.8622 11.0733 78.2088 11.58 78.4622 12.22C78.7288 12.86 78.8555 13.66 78.8422 14.62L72.2822 14.74C72.2822 15.46 72.3688 16.1067 72.5422 16.68C72.7288 17.2533 73.0288 17.7067 73.4422 18.04C73.8555 18.3733 74.4088 18.54 75.1022 18.54C75.3688 18.54 75.6688 18.4933 76.0022 18.4C76.3488 18.3067 76.6955 18.1533 77.0422 17.94C77.4022 17.7133 77.7355 17.4133 78.0422 17.04L78.9422 17.88C78.4622 18.56 77.9488 19.08 77.4022 19.44C76.8555 19.7867 76.3088 20.02 75.7622 20.14C75.2288 20.26 74.7355 20.32 74.2822 20.32ZM72.4022 13.34H76.0822C76.0688 12.78 75.9888 12.34 75.8422 12.02C75.7088 11.6867 75.5222 11.4467 75.2822 11.3C75.0422 11.1533 74.7622 11.08 74.4422 11.08C73.8555 11.08 73.3955 11.2933 73.0622 11.72C72.7288 12.1333 72.5088 12.6733 72.4022 13.34Z" fill="#F9F9F9"/>
</svg>
