<svg width="81" height="26" viewBox="0 0 81 26" fill="none" xmlns="http://www.w3.org/2000/svg">
<path d="M17.7061 7.75006C17.1326 6.02504 15.9857 4.87503 14.2652 4.15627V2H12.8315V4.01252H12.2581C10.681 4.01252 9.39068 4.58752 8.24373 5.73754L7.67025 6.31254L5.66308 5.59378C5.23298 5.45003 4.80287 5.30628 4.22939 5.30628C3.36918 5.30628 2.50896 5.59378 1.79212 6.16879C0.9319 6.7438 0.501792 7.46255 0.215054 8.18131C-0.0716846 9.18757 -0.0716846 10.0501 0.215054 11.0563C0.645161 12.0626 1.07527 12.7814 1.79212 13.2126C1.21864 15.3689 1.64875 17.2376 3.22581 18.8189C4.37276 19.9689 5.66308 20.5439 7.24014 20.5439C7.95699 20.5439 8.3871 20.5439 8.8172 20.4002C9.67742 21.5502 10.8244 22.2689 12.2581 22.2689C12.6882 22.2689 13.2616 22.2689 13.6918 22.1252C14.552 21.8377 15.1254 21.2627 15.6989 20.5439C16.2724 19.6814 16.5591 18.9627 16.5591 18.1002C16.5591 17.5252 16.5591 17.0939 16.4158 16.6626L15.6989 14.3626L16.5591 13.7876C17.7061 12.6376 18.2796 11.0563 18.1362 9.33132H20V7.75006H17.7061ZM3.79928 11.0563C2.93907 10.6251 2.65233 10.0501 2.93907 9.18757C3.22581 8.32506 3.79928 8.03756 4.6595 8.32506L9.24731 10.0501C6.95341 11.2001 5.23297 11.4876 3.79928 11.0563ZM12.8315 19.1064C11.9713 19.3939 11.3978 19.1064 10.9677 18.2439C10.5376 16.8064 10.8244 15.0814 11.9713 12.7814L13.6918 17.2376C13.9785 18.2439 13.6918 18.8189 12.8315 19.1064ZM14.552 11.4876L13.6918 9.18757V9.04382L13.2616 8.61256H13.1183L10.8244 7.75006C11.3979 7.3188 11.9713 7.0313 12.6882 7.0313C13.405 7.0313 14.1219 7.3188 14.6953 7.89381C15.2688 8.46881 15.5556 9.04382 15.5556 9.76257C15.2688 10.1938 14.9821 10.9126 14.552 11.4876Z" fill="#1B1B1B"/>
<path d="M26.7334 8.7C26.7334 8.46 26.7334 8.18667 26.7334 7.88C26.7467 7.56 26.7667 7.25333 26.7934 6.96C26.5801 6.97333 26.3267 6.98667 26.0334 7C25.7534 7 25.5401 7.00667 25.3934 7.02V5.5C26.0201 5.5 26.5401 5.46667 26.9534 5.4C27.3801 5.33333 27.7134 5.25333 27.9534 5.16C28.2067 5.06667 28.3801 4.98 28.4734 4.9H29.5534V10.76C30.0067 10.36 30.4667 10.08 30.9334 9.92C31.4001 9.76 31.8401 9.68 32.2534 9.68C33.0534 9.68 33.7534 9.88667 34.3534 10.3C34.9667 10.7133 35.4401 11.3 35.7734 12.06C36.1201 12.82 36.2934 13.7133 36.2934 14.74C36.2934 15.8067 36.0934 16.7667 35.6934 17.62C35.3067 18.46 34.7534 19.12 34.0334 19.6C33.3134 20.08 32.4467 20.32 31.4334 20.32C31.0734 20.32 30.6134 20.24 30.0534 20.08C29.5067 19.9333 29.0001 19.6133 28.5334 19.12L27.9334 20H26.7334V8.7ZM29.5534 17C29.5534 17.4533 29.6267 17.8133 29.7734 18.08C29.9201 18.3467 30.1067 18.54 30.3334 18.66C30.5601 18.78 30.7867 18.8467 31.0134 18.86C31.6134 18.8733 32.0801 18.7 32.4134 18.34C32.7601 17.98 33.0001 17.5067 33.1334 16.92C33.2801 16.32 33.3534 15.6933 33.3534 15.04C33.3534 14.4267 33.2801 13.8467 33.1334 13.3C32.9867 12.7533 32.7534 12.3133 32.4334 11.98C32.1134 11.6333 31.6934 11.4667 31.1734 11.48C30.8401 11.4933 30.5334 11.58 30.2534 11.74C29.9734 11.8867 29.7401 12.0867 29.5534 12.34V17ZM42.6615 20.06L40.2415 13.12C40.1215 12.7733 40.0282 12.5133 39.9615 12.34C39.9082 12.1667 39.8682 12.02 39.8415 11.9C39.8148 11.78 39.7815 11.64 39.7415 11.48L38.9615 11.52V10H43.7615V11.28C43.3482 11.2933 43.1082 11.4533 43.0415 11.76C42.9748 12.0667 42.9948 12.4267 43.1015 12.84L43.7815 15.28C43.8615 15.5733 43.9348 15.8867 44.0015 16.22C44.0815 16.54 44.1482 16.86 44.2015 17.18C44.2682 16.9 44.3348 16.5933 44.4015 16.26C44.4815 15.9267 44.5948 15.5133 44.7415 15.02L46.2015 10H48.3815L49.9815 15.52C50.0615 15.8 50.1415 16.1067 50.2215 16.44C50.3148 16.76 50.3948 17.0533 50.4615 17.32C50.5148 17.0533 50.5882 16.76 50.6815 16.44C50.7748 16.12 50.8615 15.8333 50.9415 15.58L51.7215 13.04C51.8282 12.68 51.9215 12.3867 52.0015 12.16C52.0815 11.92 52.1815 11.68 52.3015 11.44L51.1615 11.52V10H54.9615V11.28C54.6948 11.28 54.4615 11.3667 54.2615 11.54C54.0615 11.7133 53.8815 11.9267 53.7215 12.18C53.5748 12.42 53.4548 12.66 53.3615 12.9C53.2682 13.1267 53.2015 13.3067 53.1615 13.44L50.8815 20.06H48.7615L47.3815 15.8C47.3415 15.6533 47.2748 15.44 47.1815 15.16C47.1015 14.88 47.0148 14.58 46.9215 14.26C46.8415 13.9267 46.7615 13.62 46.6815 13.34C46.6148 13.7133 46.5148 14.14 46.3815 14.62C46.2482 15.1 46.1215 15.54 46.0015 15.94C45.8815 16.34 45.7948 16.6133 45.7415 16.76L44.6415 20.06H42.6615ZM62.4325 20.32C61.8591 20.32 61.2991 20.2467 60.7525 20.1C60.2058 19.9533 59.7791 19.7667 59.4725 19.54L59.5125 20.14H57.9925L57.9125 16.7H59.2125C59.2525 17.1 59.4125 17.4667 59.6925 17.8C59.9725 18.1333 60.3391 18.4 60.7925 18.6C61.2458 18.7867 61.7525 18.88 62.3125 18.88C62.5391 18.88 62.7525 18.8467 62.9525 18.78C63.1658 18.7133 63.3391 18.6067 63.4725 18.46C63.6191 18.3 63.6925 18.1067 63.6925 17.88C63.6925 17.6267 63.5991 17.42 63.4125 17.26C63.2391 17.1 62.9791 16.9467 62.6325 16.8C62.2991 16.6533 61.8791 16.4867 61.3725 16.3C60.9591 16.14 60.5391 15.9733 60.1125 15.8C59.6991 15.6267 59.3125 15.42 58.9525 15.18C58.6058 14.9267 58.3258 14.62 58.1125 14.26C57.8991 13.8867 57.7925 13.4333 57.7925 12.9C57.7925 12.5133 57.8658 12.1333 58.0125 11.76C58.1591 11.3733 58.3858 11.0267 58.6925 10.72C58.9991 10.4 59.3858 10.1467 59.8525 9.96C60.3325 9.77333 60.8991 9.68 61.5525 9.68C61.9125 9.68 62.3191 9.74 62.7725 9.86C63.2391 9.96667 63.6325 10.1333 63.9525 10.36V9.78H65.4725V13.32H64.1725C64.0925 12.8533 63.9258 12.4533 63.6725 12.12C63.4325 11.7867 63.1191 11.5333 62.7325 11.36C62.3458 11.1733 61.9125 11.08 61.4325 11.08C61.0991 11.08 60.7925 11.16 60.5125 11.32C60.2458 11.48 60.1125 11.7533 60.1125 12.14C60.1125 12.4467 60.2191 12.6933 60.4325 12.88C60.6458 13.0533 60.9391 13.2 61.3125 13.32C61.6858 13.44 62.0991 13.58 62.5525 13.74C63.2325 13.9667 63.8325 14.2333 64.3525 14.54C64.8858 14.8467 65.3058 15.22 65.6125 15.66C65.9191 16.0867 66.0725 16.6133 66.0725 17.24C66.0725 17.9333 65.8991 18.5067 65.5525 18.96C65.2058 19.4133 64.7525 19.7533 64.1925 19.98C63.6458 20.2067 63.0591 20.32 62.4325 20.32ZM74.2795 20.32C73.3061 20.32 72.4461 20.1067 71.6995 19.68C70.9528 19.24 70.3728 18.6267 69.9595 17.84C69.5461 17.04 69.3395 16.1 69.3395 15.02C69.3395 14.0867 69.5461 13.2133 69.9595 12.4C70.3728 11.5867 70.9528 10.9333 71.6995 10.44C72.4595 9.93333 73.3395 9.68 74.3395 9.68C74.8995 9.68 75.4461 9.76 75.9795 9.92C76.5128 10.0667 76.9928 10.3267 77.4195 10.7C77.8595 11.0733 78.2061 11.58 78.4595 12.22C78.7261 12.86 78.8528 13.66 78.8395 14.62L72.2795 14.74C72.2795 15.46 72.3661 16.1067 72.5395 16.68C72.7261 17.2533 73.0261 17.7067 73.4395 18.04C73.8528 18.3733 74.4061 18.54 75.0995 18.54C75.3661 18.54 75.6661 18.4933 75.9995 18.4C76.3461 18.3067 76.6928 18.1533 77.0395 17.94C77.3995 17.7133 77.7328 17.4133 78.0395 17.04L78.9395 17.88C78.4595 18.56 77.9461 19.08 77.3995 19.44C76.8528 19.7867 76.3061 20.02 75.7595 20.14C75.2261 20.26 74.7328 20.32 74.2795 20.32ZM72.3995 13.34H76.0795C76.0661 12.78 75.9861 12.34 75.8395 12.02C75.7061 11.6867 75.5195 11.4467 75.2795 11.3C75.0395 11.1533 74.7595 11.08 74.4395 11.08C73.8528 11.08 73.3928 11.2933 73.0595 11.72C72.7261 12.1333 72.5061 12.6733 72.3995 13.34Z" fill="#1B1B1B"/>
</svg>
